<mxfile host="app.diagrams.net" modified="2021-01-28T02:35:56.517Z" agent="5.0 (Windows NT 10.0; Win64; x64) AppleWebKit/537.36 (KHTML, like Gecko) Chrome/88.0.4324.104 Safari/537.36" etag="ZFv5hYg--v0GJ0Rcchtn" version="14.2.5" type="github">
  <diagram id="sTk17ND-MVLnAbTTWL7x" name="Page-1">
    <mxGraphModel dx="1632" dy="437" grid="1" gridSize="10" guides="1" tooltips="1" connect="1" arrows="1" fold="1" page="1" pageScale="1" pageWidth="850" pageHeight="1100" math="0" shadow="0">
      <root>
        <mxCell id="0" />
        <mxCell id="1" parent="0" />
        <mxCell id="Sp3UNYY1HzuNe6qbwxSw-11" value="listener.go" style="rounded=1;whiteSpace=wrap;html=1;verticalAlign=top;" vertex="1" parent="1">
          <mxGeometry x="-220" y="100" width="250" height="300" as="geometry" />
        </mxCell>
        <mxCell id="Sp3UNYY1HzuNe6qbwxSw-1" value="cluster.go" style="rounded=1;whiteSpace=wrap;html=1;verticalAlign=top;" vertex="1" parent="1">
          <mxGeometry x="120" y="100" width="250" height="300" as="geometry" />
        </mxCell>
        <mxCell id="Sp3UNYY1HzuNe6qbwxSw-6" style="edgeStyle=orthogonalEdgeStyle;rounded=0;orthogonalLoop=1;jettySize=auto;html=1;" edge="1" parent="1" source="Sp3UNYY1HzuNe6qbwxSw-2" target="Sp3UNYY1HzuNe6qbwxSw-4">
          <mxGeometry relative="1" as="geometry" />
        </mxCell>
        <mxCell id="Sp3UNYY1HzuNe6qbwxSw-2" value="BuildCluster" style="text;html=1;strokeColor=#d79b00;fillColor=#ffe6cc;align=center;verticalAlign=middle;whiteSpace=wrap;rounded=0;" vertex="1" parent="1">
          <mxGeometry x="175" y="190" width="140" height="20" as="geometry" />
        </mxCell>
        <mxCell id="Sp3UNYY1HzuNe6qbwxSw-3" value="cluster_bulider.go" style="rounded=1;whiteSpace=wrap;html=1;verticalAlign=top;" vertex="1" parent="1">
          <mxGeometry x="490" y="110" width="250" height="300" as="geometry" />
        </mxCell>
        <mxCell id="Sp3UNYY1HzuNe6qbwxSw-16" value="" style="edgeStyle=orthogonalEdgeStyle;rounded=0;orthogonalLoop=1;jettySize=auto;html=1;" edge="1" parent="1" source="Sp3UNYY1HzuNe6qbwxSw-4" target="Sp3UNYY1HzuNe6qbwxSw-10">
          <mxGeometry relative="1" as="geometry" />
        </mxCell>
        <mxCell id="Sp3UNYY1HzuNe6qbwxSw-4" value="BuildInboundCluster" style="text;html=1;strokeColor=#d79b00;fillColor=#ffe6cc;align=center;verticalAlign=middle;whiteSpace=wrap;rounded=0;" vertex="1" parent="1">
          <mxGeometry x="175" y="230" width="140" height="20" as="geometry" />
        </mxCell>
        <mxCell id="Sp3UNYY1HzuNe6qbwxSw-17" style="edgeStyle=orthogonalEdgeStyle;rounded=0;orthogonalLoop=1;jettySize=auto;html=1;entryX=1;entryY=0.5;entryDx=0;entryDy=0;dashed=1;" edge="1" parent="1" source="Sp3UNYY1HzuNe6qbwxSw-10" target="Sp3UNYY1HzuNe6qbwxSw-12">
          <mxGeometry relative="1" as="geometry" />
        </mxCell>
        <mxCell id="Sp3UNYY1HzuNe6qbwxSw-10" value="getActualWildcardAndLocalHost" style="text;html=1;strokeColor=#d79b00;fillColor=#ffe6cc;align=center;verticalAlign=middle;whiteSpace=wrap;rounded=0;" vertex="1" parent="1">
          <mxGeometry x="152.5" y="300" width="185" height="20" as="geometry" />
        </mxCell>
        <mxCell id="Sp3UNYY1HzuNe6qbwxSw-12" value="getActualWildcardAndLocalHost" style="text;html=1;strokeColor=#d79b00;fillColor=#ffe6cc;align=center;verticalAlign=middle;whiteSpace=wrap;rounded=0;" vertex="1" parent="1">
          <mxGeometry x="-185" y="190" width="185" height="20" as="geometry" />
        </mxCell>
        <mxCell id="Sp3UNYY1HzuNe6qbwxSw-14" value="defination" style="text;html=1;strokeColor=#6c8ebf;fillColor=#dae8fc;align=center;verticalAlign=middle;whiteSpace=wrap;rounded=0;" vertex="1" parent="1">
          <mxGeometry x="-390" y="30" width="70" height="20" as="geometry" />
        </mxCell>
        <mxCell id="Sp3UNYY1HzuNe6qbwxSw-15" value="invoke" style="text;html=1;strokeColor=#d79b00;fillColor=#ffe6cc;align=center;verticalAlign=middle;whiteSpace=wrap;rounded=0;" vertex="1" parent="1">
          <mxGeometry x="-390" y="60" width="70" height="20" as="geometry" />
        </mxCell>
        <mxCell id="Sp3UNYY1HzuNe6qbwxSw-18" value="WildcardAddress&lt;br&gt;0.0.0.0" style="text;html=1;strokeColor=#d79b00;fillColor=#ffe6cc;align=center;verticalAlign=middle;whiteSpace=wrap;rounded=0;" vertex="1" parent="1">
          <mxGeometry x="-200" y="290" width="100" height="30" as="geometry" />
        </mxCell>
        <mxCell id="Sp3UNYY1HzuNe6qbwxSw-19" value="LocalhostAddress&lt;br&gt;127.0.0.1" style="text;html=1;strokeColor=#d79b00;fillColor=#ffe6cc;align=center;verticalAlign=middle;whiteSpace=wrap;rounded=0;" vertex="1" parent="1">
          <mxGeometry x="-90" y="290" width="100" height="30" as="geometry" />
        </mxCell>
      </root>
    </mxGraphModel>
  </diagram>
</mxfile>
